<?xml version="1.0" standalone="no"?>
<!DOCTYPE svg PUBLIC "-//W3C//DTD SVG 20010904//EN"
 "http://www.w3.org/TR/2001/REC-SVG-20010904/DTD/svg10.dtd">
<svg version="1.0" xmlns="http://www.w3.org/2000/svg"
 width="1024.000000pt" height="1024.000000pt" viewBox="0 0 1024.000000 1024.000000"
 preserveAspectRatio="xMidYMid meet">
<metadata>
Created by potrace 1.14, written by Peter Selinger 2001-2017
</metadata>
<g transform="translate(0.000000,1024.000000) scale(0.100000,-0.100000)"
fill="#000000" stroke="none">
<path d="M4710 10209 c-89 -7 -159 -15 -300 -34 -290 -39 -606 -113 -905 -212
-93 -31 -174 -59 -180 -63 -5 -4 -39 -17 -75 -30 -36 -13 -119 -48 -185 -78
-437 -199 -682 -344 -1055 -624 -208 -156 -495 -424 -698 -653 -189 -212 -243
-279 -369 -460 -149 -213 -253 -387 -378 -630 -304 -595 -496 -1290 -542
-1957 -10 -145 -10 -562 0 -698 25 -341 99 -767 181 -1035 14 -44 34 -113 46
-154 23 -79 111 -326 135 -376 7 -16 28 -66 45 -110 38 -96 192 -406 245 -496
254 -421 387 -603 667 -914 271 -300 539 -535 893 -782 437 -306 1037 -583
1541 -713 64 -17 119 -32 123 -34 10 -7 299 -65 376 -76 39 -5 81 -12 95 -15
81 -17 296 -37 507 -47 336 -17 762 5 1028 52 178 31 336 62 385 74 459 117
692 202 1110 404 643 311 1248 805 1746 1427 245 305 516 763 671 1135 220
525 336 993 398 1605 3 28 7 167 11 310 6 292 -9 534 -52 835 -24 170 -35 226
-95 475 -50 207 -170 581 -228 708 -11 23 -34 78 -51 122 -106 266 -405 775
-614 1045 -282 364 -726 801 -1026 1010 -19 13 -39 28 -45 33 -5 5 -62 44
-125 88 -63 43 -119 82 -125 87 -15 12 -147 88 -260 150 -193 107 -491 248
-615 292 -36 13 -69 26 -75 30 -19 14 -351 119 -470 150 -227 59 -432 100
-615 125 -14 2 -61 8 -105 14 -230 30 -753 41 -1015 20z m800 -130 c537 -39
1144 -191 1620 -407 410 -185 691 -353 1035 -617 344 -265 700 -627 957 -975
977 -1323 1240 -3033 705 -4585 -307 -892 -858 -1674 -1593 -2261 -413 -330
-842 -576 -1334 -767 -762 -295 -1624 -394 -2450 -281 -573 78 -1018 216
-1565 484 -751 369 -1433 974 -1910 1695 -297 448 -486 857 -635 1372 -177
610 -233 1211 -174 1855 91 999 514 1994 1170 2758 613 712 1371 1217 2264
1508 316 103 657 173 1060 218 187 20 592 22 850 3z"/>
<path d="M4950 9655 l0 -115 32 0 31 0 -6 -137 c-4 -75 -7 -180 -7 -234 l0
-98 -32 -3 -33 -3 0 -115 0 -115 183 -3 182 -2 2 95 c1 52 2 103 2 113 1 10
-8 18 -21 20 -21 3 -23 9 -23 63 l0 59 34 0 c31 0 38 -5 65 -54 36 -63 37 -66
13 -66 -17 0 -20 -12 -25 -112 -4 -62 -3 -116 1 -120 4 -4 79 -8 167 -9 l160
-1 7 104 c4 56 6 109 3 116 -2 6 -15 12 -27 12 -19 0 -32 18 -72 92 l-49 92
51 46 50 45 8 131 7 130 -76 86 -76 85 -188 6 c-103 4 -227 7 -275 7 l-88 0 0
-115z m430 -137 c0 -5 0 -35 0 -68 l0 -61 -55 3 c-30 2 -55 6 -55 11 0 4 0 34
0 67 l0 61 55 -3 c30 -2 55 -6 55 -10z"/>
<path d="M4455 9725 c-363 -67 -459 -86 -462 -88 -1 -2 7 -54 19 -115 l22
-113 30 3 30 3 17 -90 c10 -49 29 -152 42 -228 l25 -138 -29 -6 c-16 -3 -29
-11 -29 -17 2 -28 37 -206 43 -212 3 -4 73 6 154 21 81 15 230 42 331 60 101
18 185 35 188 38 5 5 -42 287 -50 294 -2 2 -56 -6 -121 -18 l-117 -22 5 -33
c3 -19 3 -36 -1 -38 -4 -2 -32 -7 -63 -11 -63 -8 -60 -12 -74 87 l-7 46 101
18 c64 11 101 22 101 30 0 15 -29 166 -32 170 -2 1 -47 -6 -101 -16 l-98 -18
-8 22 c-5 11 -11 42 -15 67 l-7 46 62 10 c49 8 62 7 65 -4 2 -7 6 -20 9 -28 6
-19 25 -18 145 4 69 13 95 21 94 32 -1 8 -11 74 -24 147 -21 121 -25 132 -44
131 -12 -1 -102 -16 -201 -34z"/>
<path d="M5891 9568 c-13 -73 -25 -145 -28 -159 -5 -25 -3 -26 63 -37 37 -6
69 -10 70 -9 5 6 134 291 134 296 0 6 -180 42 -206 41 -6 0 -21 -59 -33 -132z"/>
<path d="M3475 9470 c-137 -55 -297 -119 -355 -141 -58 -23 -108 -45 -112 -48
-7 -6 86 -259 100 -273 5 -5 174 55 191 68 2 2 -2 17 -7 34 -10 28 -9 32 15
41 14 5 28 8 30 5 5 -4 159 -387 168 -417 4 -12 -2 -19 -20 -23 -14 -4 -25
-11 -25 -18 0 -19 75 -208 82 -208 18 0 348 135 348 142 0 12 -71 192 -80 201
-4 4 -18 3 -32 -2 -23 -9 -27 -6 -42 27 -36 84 -157 395 -154 397 7 5 47 25
51 25 3 0 10 -14 16 -31 6 -19 16 -29 23 -26 7 3 50 20 96 38 45 17 82 37 82
43 0 5 -20 60 -44 121 -24 60 -46 118 -49 128 -4 9 -12 17 -19 16 -7 0 -125
-45 -263 -99z"/>
<path d="M6378 9512 l-96 -47 -42 -116 -41 -115 51 -106 51 -107 97 -32 c53
-17 102 -36 109 -41 9 -7 7 -22 -8 -61 -12 -29 -22 -54 -24 -56 -9 -8 -136 42
-132 53 23 60 34 51 -116 102 l-98 33 -11 -27 c-40 -102 -40 -100 15 -213 l52
-104 149 -49 149 -49 99 49 c55 27 104 58 110 68 6 10 25 64 44 119 l33 100
-51 101 c-28 56 -55 104 -60 107 -5 3 -53 21 -106 39 -53 18 -98 34 -100 35
-8 7 33 115 43 115 6 0 39 -9 73 -21 65 -22 65 -22 45 -74 -3 -10 186 -80 216
-80 7 0 23 27 36 60 l22 60 -52 105 -53 105 -138 48 c-77 26 -146 47 -154 47
-8 0 -59 -21 -112 -48z"/>
<path d="M2480 8949 c-69 -50 -126 -94 -128 -98 -1 -5 -11 -56 -21 -115 l-18
-106 65 -93 c35 -50 68 -96 72 -101 7 -7 195 -45 226 -46 6 0 52 30 103 66 51
36 93 64 95 62 1 -1 17 -22 34 -44 18 -23 32 -46 32 -52 0 -11 -95 -82 -110
-82 -5 0 -15 9 -22 20 -7 11 -18 20 -24 20 -12 0 -194 -128 -194 -136 0 -3 17
-29 38 -59 l37 -53 111 -22 112 -22 113 80 c63 44 122 87 132 94 14 11 24 44
37 127 l19 112 -61 87 c-33 48 -67 94 -76 103 -19 19 -224 55 -244 43 -7 -4
-50 -34 -96 -67 -45 -33 -84 -58 -86 -56 -24 30 -67 102 -63 105 2 3 28 23 58
45 l53 39 21 -26 22 -27 89 63 c49 34 93 66 98 71 8 8 -60 119 -73 119 -7 0
-176 28 -206 34 -13 3 -62 -26 -145 -85z"/>
<path d="M7763 8816 c-45 -6 -84 -14 -86 -16 -2 -3 -36 -47 -75 -98 -57 -75
-70 -98 -67 -120 6 -35 25 -181 25 -192 0 -7 68 -62 179 -146 4 -3 -70 -104
-76 -104 -8 0 -108 83 -108 89 1 3 7 18 15 34 7 15 11 29 9 30 -117 91 -178
137 -182 137 -3 0 -24 -24 -47 -52 -42 -53 -42 -53 -36 -118 17 -172 5 -150
135 -252 64 -50 121 -95 127 -100 12 -9 234 18 244 30 4 4 37 47 75 95 l68 89
-12 116 c-8 71 -18 120 -26 127 -7 5 -47 36 -89 69 -42 32 -76 61 -76 64 0 3
17 27 37 53 22 29 41 45 47 40 6 -4 32 -24 58 -45 l48 -38 -19 -27 -19 -27 89
-69 c49 -39 93 -71 98 -73 7 -2 66 64 84 94 6 10 -18 234 -25 239 -2 1 -56 43
-120 93 -132 103 -121 100 -275 78z"/>
<path d="M4860 8479 c-354 -31 -667 -104 -980 -226 -124 -49 -387 -177 -485
-236 -48 -29 -70 -37 -110 -37 -67 -1 -124 -15 -139 -35 -7 -10 -52 -26 -111
-40 -83 -19 -103 -28 -124 -53 -19 -22 -38 -32 -71 -37 -93 -13 -90 -6 -64
-161 l17 -98 -27 -23 c-15 -13 -34 -23 -42 -23 -8 0 -14 -7 -14 -16 0 -8 -43
-63 -97 -122 -432 -479 -711 -1059 -822 -1712 -41 -238 -49 -517 -28 -934 l2
-39 -85 -23 c-139 -37 -142 -39 -136 -76 31 -185 101 -621 117 -727 10 -74 20
-136 22 -137 1 -1 58 -13 126 -28 131 -28 200 -32 231 -16 17 9 24 2 56 -62
79 -157 217 -383 316 -515 443 -593 1057 -1018 1770 -1227 315 -92 591 -129
943 -129 214 0 277 4 437 27 233 33 293 45 493 103 233 67 366 119 602 239
510 259 957 659 1278 1144 268 404 461 924 532 1430 25 178 25 672 0 850 -162
1146 -842 2099 -1852 2595 -115 57 -275 126 -355 155 -436 157 -962 228 -1400
189z m612 -184 c188 -20 246 -30 443 -81 601 -153 1159 -488 1565 -939 138
-154 179 -205 272 -340 125 -181 240 -391 320 -585 113 -270 214 -678 237
-953 43 -506 -35 -1013 -228 -1490 -93 -231 -171 -369 -171 -304 0 24 -119
225 -187 318 -75 102 -128 189 -191 314 -22 44 -49 91 -61 105 -20 24 -21 24
-35 6 -14 -18 -15 -18 -20 5 -3 13 -12 53 -20 89 -8 36 -22 106 -31 155 -22
122 -22 122 -54 128 -29 6 -29 7 -37 104 -4 54 -8 166 -8 248 -1 172 1 180 89
275 62 68 69 80 101 173 32 95 86 192 176 317 91 126 143 227 168 324 51 201
24 559 -53 694 l-24 43 -6 -79 c-7 -96 -46 -222 -87 -284 -80 -120 -140 -156
-470 -279 -199 -74 -305 -130 -339 -177 -10 -15 -28 -55 -41 -89 -28 -78 -56
-88 -107 -37 -18 19 -53 44 -76 55 -23 12 -69 41 -103 65 -74 53 -139 69 -238
60 -67 -6 -159 -30 -181 -46 -5 -4 -26 -11 -45 -14 l-35 -7 60 56 c126 119
261 152 405 100 157 -56 198 -67 285 -72 l90 -5 148 72 c81 39 188 86 237 105
165 63 239 105 309 175 108 107 164 237 160 375 -2 69 -3 71 -76 181 -82 125
-186 246 -253 298 -123 93 -281 143 -364 114 -21 -7 -44 -22 -50 -33 -19 -34
-267 -385 -277 -391 -16 -10 -10 -43 11 -54 24 -13 61 -76 94 -160 13 -36 38
-98 55 -138 40 -95 55 -215 45 -347 -5 -55 -9 -104 -10 -110 -1 -5 -2 -18 -3
-27 -2 -28 -147 -16 -319 27 -170 42 -227 43 -356 10 -108 -28 -116 -29 -116
-15 0 6 6 10 14 10 25 0 73 48 90 90 26 66 40 217 24 265 -25 75 -55 77 -288
24 -74 -17 -175 -37 -225 -45 -178 -29 -191 -36 -387 -223 -75 -71 -146 -132
-157 -136 -27 -8 -92 10 -124 36 -52 40 -60 173 -16 248 11 18 18 36 15 38 -9
9 -76 -136 -87 -188 -18 -85 -7 -111 82 -200 102 -102 102 -113 12 -177 -38
-26 -96 -76 -130 -112 -66 -69 -91 -120 -184 -370 -76 -203 -120 -275 -214
-346 -35 -27 -53 -34 -89 -34 -84 0 -98 45 -37 118 44 53 191 285 260 410 25
46 72 113 103 150 71 82 104 149 113 229 7 60 9 64 43 80 42 20 84 19 123 -4
53 -31 42 -4 -24 62 -36 36 -70 65 -75 65 -17 0 -32 61 -32 132 0 40 -4 67 -9
63 -5 -3 -21 -41 -36 -85 -31 -93 -49 -110 -118 -110 -49 0 -50 -1 -61 -52 -5
-23 -15 -30 -58 -43 -28 -8 -55 -15 -60 -15 -27 0 5 49 100 155 59 66 124 146
145 178 21 31 42 57 47 57 27 0 60 -22 66 -45 3 -14 9 -25 13 -25 4 0 28 29
54 65 31 43 61 71 89 86 52 26 340 221 334 226 -10 10 -126 -45 -208 -99 -117
-77 -183 -108 -230 -108 -53 0 -88 18 -88 46 0 46 41 131 88 184 26 30 60 76
75 103 16 26 45 64 67 85 59 57 375 244 590 349 93 46 97 46 212 51 72 3 136
0 165 -7 111 -27 223 -106 423 -297 80 -77 110 -101 110 -87 0 31 39 96 139
236 50 70 103 150 118 177 25 47 26 49 9 75 -10 15 -47 40 -83 58 -63 29 -73
31 -247 38 -157 6 -192 11 -266 35 -117 38 -282 40 -380 6 -161 -55 -408 -199
-651 -378 -159 -118 -192 -154 -264 -290 -32 -60 -71 -128 -87 -152 -42 -61
-57 -103 -79 -216 -31 -159 -91 -261 -220 -375 -45 -39 -79 -93 -79 -125 0
-22 37 -54 71 -61 33 -7 38 -37 13 -70 -13 -18 -13 -20 3 -27 10 -3 32 -7 48
-8 l30 0 -25 -19 -24 -19 32 -19 c17 -10 32 -22 32 -27 0 -5 -27 -37 -59 -71
-58 -60 -59 -63 -65 -131 -4 -38 -9 -83 -12 -101 -3 -18 -53 -104 -117 -198
-136 -203 -140 -211 -133 -240 17 -67 101 -122 199 -132 51 -4 71 -2 109 16
59 27 66 26 74 -3 8 -35 -19 -81 -100 -164 -68 -70 -70 -74 -59 -103 11 -27 9
-30 -17 -44 -37 -19 -80 -72 -80 -98 0 -12 11 -56 24 -97 23 -73 29 -108 27
-162 -1 -15 -40 -83 -97 -167 -171 -253 -211 -371 -155 -452 60 -87 178 -140
406 -179 171 -30 396 -33 470 -6 110 40 189 87 291 175 164 143 161 141 240
161 43 11 88 20 101 20 l25 0 -39 -72 c-44 -82 -48 -85 -183 -126 -219 -68
-343 -157 -531 -382 -92 -109 -175 -256 -267 -470 -24 -58 -64 -150 -87 -205
-23 -55 -91 -201 -150 -325 -59 -124 -114 -242 -122 -262 -17 -44 -5 -44 -178
7 -150 45 -257 85 -405 152 -178 81 -210 101 -210 126 0 68 -53 813 -59 819
-4 4 -41 13 -84 20 l-77 12 0 117 c0 89 -4 121 -14 132 -8 8 -43 20 -78 27
-89 17 -98 24 -98 70 0 51 19 137 38 175 8 17 46 64 84 105 44 48 82 102 106
150 20 41 37 76 38 78 1 2 48 -9 105 -23 l102 -26 31 22 c82 59 222 178 261
221 24 27 53 69 66 94 21 45 22 54 15 218 -3 94 -12 221 -20 281 -68 534 -70
569 -51 731 8 62 -28 357 -56 464 -14 53 -29 84 -51 106 -29 31 -31 36 -68
305 -21 151 -46 334 -55 407 l-18 133 24 25 c20 21 24 35 22 78 -1 29 -9 81
-18 116 -15 57 -15 64 0 83 65 90 65 89 65 151 0 43 -6 67 -18 82 -21 26 -54
44 -81 44 -12 0 -21 2 -21 4 0 32 -43 283 -51 298 -6 11 -27 27 -47 35 l-37
16 175 85 c362 176 740 282 1125 315 117 10 514 5 637 -8z m-2207 -372 c-42
-7 -61 -24 -40 -35 21 -12 155 -12 168 1 15 15 -2 31 -36 32 -24 1 -26 3 -9 6
30 6 92 -15 92 -32 0 -23 -67 -38 -156 -33 -80 4 -121 19 -108 40 10 15 47 27
84 26 33 -1 34 -1 5 -5z m-105 -69 c0 -41 55 -58 161 -50 97 6 139 19 139 40
0 8 4 18 10 21 11 7 90 -15 90 -25 0 -20 -286 -80 -382 -80 -72 0 -219 37
-225 57 -4 12 39 28 107 38 25 4 52 11 60 16 27 15 40 10 40 -17z m-130 -94
c30 -17 32 -19 13 -21 -37 -3 -41 -4 -49 -11 -10 -11 -72 -10 -78 1 -3 5 -22
12 -41 15 -41 8 -38 26 5 26 16 0 32 5 36 11 8 14 67 3 114 -21z m2984 -150
c14 -5 26 -13 26 -17 0 -5 -35 -23 -78 -42 -42 -19 -169 -83 -282 -142 -249
-131 -379 -194 -386 -187 -3 3 71 50 163 103 92 54 224 134 293 179 69 44 148
88 175 98 60 21 57 20 89 8z m-3104 -151 c65 -20 96 -21 213 -2 32 5 37 3 37
-15 0 -18 -9 -21 -79 -27 -69 -6 -94 -3 -187 21 -76 20 -101 30 -88 35 28 11
33 11 104 -12z m-131 -514 c17 -126 43 -306 56 -400 20 -138 75 -542 75 -553
0 -8 -71 -27 -210 -57 -188 -41 -190 -41 -190 -70 0 -26 38 -386 45 -430 l5
-31 -97 -22 c-125 -28 -197 -68 -213 -117 -6 -19 -13 -35 -14 -35 -2 0 -29 9
-62 21 -71 25 -156 27 -208 5 -22 -9 -41 -14 -44 -11 -19 18 45 471 93 655
120 468 343 906 645 1265 l75 89 6 -39 c3 -22 20 -143 38 -270z m778 -137 c-3
-8 -6 -5 -6 6 -1 11 2 17 5 13 3 -3 4 -12 1 -19z m10 -90 c-3 -7 -5 -2 -5 12
0 14 2 19 5 13 2 -7 2 -19 0 -25z m10 -80 c-3 -8 -6 -5 -6 6 -1 11 2 17 5 13
3 -3 4 -12 1 -19z m2513 -199 c9 -34 8 -56 -6 -116 -21 -91 -30 -88 -14 5 13
78 4 132 -30 175 -31 39 -23 46 10 10 16 -18 34 -51 40 -74z m-2383 59 c-3 -8
-6 -5 -6 6 -1 11 2 17 5 13 3 -3 4 -12 1 -19z m10 -90 c-3 -7 -5 -2 -5 12 0
14 2 19 5 13 2 -7 2 -19 0 -25z m2086 -41 c51 -30 64 -55 76 -152 5 -38 14
-82 20 -98 l11 -27 -30 15 c-16 8 -47 41 -69 73 -53 77 -85 106 -153 136 -62
27 -68 38 -40 69 25 28 125 19 185 -16z m-2076 -54 c-3 -10 -5 -4 -5 12 0 17
2 24 5 18 2 -7 2 -21 0 -30z m1977 -68 c13 -9 52 -48 87 -87 l63 -70 -25 -19
c-41 -31 -107 -60 -146 -65 -31 -4 -34 -3 -16 5 32 14 63 69 63 112 0 36 -27
83 -60 104 -50 33 -125 21 -164 -26 -45 -53 -29 -160 28 -188 12 -5 16 -10 9
-10 -6 -1 -40 12 -75 29 -34 16 -72 30 -83 30 -46 1 -45 14 9 94 30 44 67 86
82 95 60 32 176 30 228 -4z m-1967 -17 c-3 -8 -6 -5 -6 6 -1 11 2 17 5 13 3
-3 4 -12 1 -19z m3741 -3 c41 -35 59 -108 42 -173 -23 -86 -28 -146 -18 -232
l11 -85 -56 -110 c-30 -60 -62 -126 -70 -146 -8 -19 -40 -63 -70 -98 -55 -62
-72 -94 -102 -203 -26 -94 -85 -148 -164 -148 -64 0 -75 25 -75 175 -1 108 -3
126 -21 145 -15 17 -26 20 -51 15 l-31 -5 -7 89 c-11 134 9 179 104 242 l25
17 -54 16 c-138 41 -257 0 -312 -106 -22 -44 -26 -159 -7 -249 9 -44 9 -91 0
-204 -15 -184 -30 -216 -177 -375 -102 -110 -110 -121 -185 -277 -44 -90 -94
-185 -111 -211 -33 -48 -114 -141 -135 -154 -6 -4 -72 -23 -146 -42 -145 -36
-278 -94 -356 -154 -135 -102 -248 -158 -438 -213 -64 -19 -102 -23 -199 -23
-124 1 -162 8 -300 58 -38 14 -113 32 -165 41 -130 23 -123 19 -106 53 10 19
40 42 88 67 98 52 154 88 342 222 181 129 166 125 346 92 147 -27 262 -22 370
15 164 57 243 130 318 290 26 55 61 130 79 165 18 35 32 65 30 67 -1 2 -32
-17 -67 -42 -83 -58 -199 -117 -294 -149 -94 -32 -217 -33 -372 -5 -140 25
-215 25 -328 -1 -73 -18 -108 -21 -183 -16 -88 6 -153 26 -153 46 0 13 56 58
80 66 13 4 33 -1 54 -14 45 -28 65 -27 181 14 118 41 168 44 292 14 196 -46
310 -36 510 45 240 98 321 161 415 324 41 71 63 99 92 115 l38 22 24 -30 c14
-16 49 -75 79 -131 30 -56 61 -107 70 -114 19 -16 19 -41 0 -115 -9 -32 -14
-62 -12 -68 3 -9 61 81 104 162 18 35 23 60 23 117 0 40 -4 84 -10 99 -5 14
-66 81 -135 150 -120 119 -145 153 -145 197 0 30 35 73 76 93 50 24 83 8 140
-68 92 -122 115 -183 134 -342 14 -124 21 -152 30 -134 13 24 20 114 30 352
10 268 12 275 113 353 69 54 78 57 281 100 104 22 128 46 207 202 47 93 72
131 104 157 84 70 170 85 223 40z m-1850 -7 c16 -16 15 -33 -3 -51 -19 -19
-52 -11 -60 15 -12 37 35 64 63 36z m-1981 -80 c-3 -8 -6 -5 -6 6 -1 11 2 17
5 13 3 -3 4 -12 1 -19z m2797 -62 c72 -36 196 -142 196 -169 0 -7 -25 -31 -56
-52 -31 -21 -92 -78 -137 -126 -112 -119 -130 -129 -242 -127 -76 1 -101 -3
-160 -26 -154 -60 -224 -62 -350 -11 -49 20 -112 46 -140 57 -27 11 -81 35
-119 54 -68 33 -126 44 -126 24 0 -5 4 -10 8 -10 4 0 46 -24 93 -53 98 -62
126 -74 223 -98 71 -17 71 -17 25 -18 -63 -1 -138 23 -196 63 -171 122 -230
142 -324 111 -60 -20 -138 -67 -120 -73 6 -2 26 1 43 7 53 19 138 13 188 -12
37 -18 46 -28 48 -53 6 -62 -11 -81 -90 -104 -105 -32 -191 -80 -293 -165
-112 -94 -171 -126 -248 -133 l-60 -5 6 33 c5 23 38 66 115 147 59 63 136 150
172 193 73 90 124 130 269 213 113 64 135 90 145 168 10 73 36 68 135 -24 67
-63 87 -76 141 -91 129 -37 259 -15 326 55 37 39 25 47 -23 14 -66 -43 -200
-52 -236 -16 -8 8 13 11 74 11 79 0 89 2 125 29 21 16 64 54 94 86 61 62 84
75 198 104 163 42 202 42 296 -3z m-1661 -3 c40 -20 33 -30 -29 -37 -31 -3
-65 -11 -76 -17 -36 -19 -39 -4 -8 39 33 46 48 48 113 15z m-1126 -30 c-3 -10
-5 -4 -5 12 0 17 2 24 5 18 2 -7 2 -21 0 -30z m2266 16 c20 -7 37 -16 37 -19
0 -4 -47 -31 -105 -60 -103 -52 -107 -53 -193 -54 -83 0 -91 2 -171 42 -46 23
-97 42 -113 42 -15 0 -28 5 -28 10 0 19 59 10 136 -21 67 -27 87 -31 135 -25
72 7 156 38 205 76 22 16 44 27 49 26 6 -2 27 -9 48 -17z m-1210 -83 c7 -19
-13 -26 -37 -14 -15 8 -16 12 -5 19 21 13 36 11 42 -5z m-1623 -26 c58 0 -3
-20 -110 -35 -63 -9 -151 -25 -195 -36 -70 -17 -216 -27 -204 -14 3 2 72 19
155 36 82 18 174 38 204 45 30 7 71 11 90 9 19 -3 46 -5 60 -5z m1700 -55 c0
-21 -5 -25 -31 -25 -38 0 -69 16 -69 35 0 11 13 15 50 15 47 0 50 -2 50 -25z
m-93 -119 c-17 -24 -40 -57 -49 -75 -19 -34 -35 -40 -44 -16 -15 38 62 135
106 135 18 0 16 -5 -13 -44z m-1480 13 c42 -15 97 -74 121 -127 63 -141 109
-286 127 -402 4 -25 14 -57 21 -72 18 -35 18 -139 -2 -258 -8 -52 -19 -194
-24 -315 -10 -247 -23 -325 -82 -500 -49 -146 -85 -216 -147 -286 -87 -98
-121 -197 -121 -356 l0 -91 -32 -11 c-75 -23 -172 -34 -323 -35 -152 0 -300
15 -318 33 -5 5 4 28 20 52 26 39 28 50 28 133 0 82 -3 96 -30 145 -16 29 -57
83 -91 120 -77 83 -105 129 -132 211 -37 115 -45 188 -47 455 -2 284 -7 319
-63 418 -16 28 -37 77 -47 107 -21 64 -51 128 -72 152 -14 16 -13 18 11 28 36
13 51 13 121 -5 79 -21 157 -57 206 -96 54 -43 98 -44 118 -4 17 35 21 120 7
153 -5 12 -23 26 -39 30 -30 8 -30 8 30 35 33 15 74 30 90 33 45 9 106 -12
147 -51 21 -19 43 -35 50 -35 7 0 31 -16 55 -36 38 -33 45 -35 68 -25 20 9 24
16 18 34 -3 12 -10 36 -13 52 -6 22 -18 35 -50 50 -23 12 -49 28 -58 37 -15
15 -14 17 14 32 47 24 109 20 170 -11 48 -24 71 -44 165 -141 40 -40 70 -49
101 -29 20 13 25 27 30 90 12 124 1 159 -76 239 -24 25 -59 73 -78 107 -50 89
-69 111 -92 111 -40 0 -10 12 64 25 93 17 120 18 155 4z m-407 -74 c-7 -9 -15
-13 -18 -10 -3 2 1 11 8 20 7 9 15 13 18 10 3 -2 -1 -11 -8 -20z m2446 -299
c3 -14 1 -33 -5 -43 -10 -17 -10 -17 -11 3 0 12 -7 27 -15 34 -21 17 -19 30 5
30 12 0 22 -9 26 -24z m815 -26 c11 -6 19 -21 19 -35 0 -45 -39 -72 -179 -125
-208 -77 -281 -123 -521 -324 -52 -43 -115 -88 -139 -99 -40 -18 -51 -18 -160
-7 l-116 12 -128 -51 -127 -52 -45 20 c-45 20 -53 33 -35 61 8 12 13 11 39 -8
35 -25 80 -28 120 -8 36 19 130 121 183 199 155 230 232 309 366 372 88 42
141 45 258 14 116 -32 224 -29 334 10 97 34 104 35 131 21z m-91 -250 c0 -21
-42 -92 -77 -131 -34 -38 -37 -39 -54 -23 -28 25 -23 49 19 95 44 50 112 85
112 59z m-204 -98 c19 -12 34 -49 34 -84 0 -56 -44 -105 -118 -134 -56 -22
-65 -11 -59 72 3 44 11 70 28 94 36 48 87 71 115 52z m-187 -149 c6 -13 11
-43 11 -67 0 -48 2 -47 -107 -80 -66 -20 -70 -20 -78 4 -16 49 41 142 109 178
24 12 50 -2 65 -35z m1067 -142 c-15 -28 -53 -90 -85 -138 -107 -158 -161
-202 -181 -148 -14 37 -3 71 35 108 154 153 246 239 251 235 3 -3 -6 -29 -20
-57z m421 -102 c7 -88 -9 -195 -38 -252 -25 -49 -103 -134 -141 -153 -25 -13
-29 -13 -35 2 -3 9 13 71 37 138 23 66 58 177 77 246 18 69 41 136 50 150 l16
24 14 -39 c8 -22 17 -74 20 -116z m-1700 74 c-10 -9 -78 -15 -111 -9 -36 7
-51 26 -21 26 9 0 37 11 63 25 l47 25 13 -31 c7 -17 11 -33 9 -36z m1963 -322
l12 -154 -74 -75 c-149 -152 -208 -198 -345 -266 -174 -87 -181 -88 -668 -75
-145 3 -173 1 -303 -25 -79 -16 -146 -26 -149 -22 -4 4 -2 19 3 34 9 26 13 27
104 35 310 25 556 75 722 147 127 55 258 136 370 229 117 98 162 149 241 269
48 72 63 89 68 75 3 -10 12 -87 19 -172z m-4070 -1217 l0 -165 -37 -15 c-68
-29 -167 -45 -319 -51 l-150 -6 -62 69 c-80 91 -181 217 -182 228 0 4 8 5 18
1 9 -4 85 -10 167 -12 134 -5 162 -2 260 20 61 14 148 41 195 60 47 19 91 35
98 36 9 1 12 -38 12 -165z"/>
<path d="M5304 6435 c-155 -121 -188 -134 -254 -100 -32 17 -36 10 -19 -28 27
-60 99 -59 176 2 61 49 178 169 172 175 -3 3 -36 -19 -75 -49z"/>
<path d="M7400 6163 c-30 -11 -73 -59 -100 -114 -16 -30 -45 -68 -65 -84 -41
-31 -75 -94 -75 -140 0 -16 9 -50 20 -74 11 -24 18 -52 15 -62 -3 -9 -31 -34
-61 -55 -31 -21 -60 -46 -65 -56 -5 -10 -5 -47 2 -95 20 -149 74 -150 139 -3
6 14 26 41 45 60 18 19 45 60 59 91 15 32 33 62 41 69 13 11 14 8 9 -21 -16
-93 -49 -163 -103 -222 -42 -46 -55 -68 -65 -109 -12 -53 12 -27 84 88 67 108
139 263 155 332 8 38 15 370 8 388 -5 14 -17 16 -43 7z m9 -300 c1 -55 -3 -94
-10 -98 -7 -5 -8 12 -3 53 7 68 -5 102 -39 102 -45 0 -53 14 -32 60 10 22 30
53 44 68 l26 27 6 -60 c4 -33 7 -101 8 -152z"/>
<path d="M5325 5898 c-3 -24 -8 -55 -11 -70 -5 -27 -5 -27 32 -16 21 5 62 8
91 6 29 -3 53 -1 53 3 0 4 -15 18 -32 30 -18 13 -51 38 -72 56 -22 18 -43 33
-47 33 -4 0 -10 -19 -14 -42z"/>
<path d="M1782 8357 l-112 -114 0 -90 c0 -50 3 -104 6 -121 5 -24 57 -80 222
-237 l215 -205 117 0 117 0 166 174 167 174 -103 99 c-56 54 -147 142 -202
196 l-101 97 -114 -115 -115 -115 70 -64 70 -64 23 21 22 21 49 -49 50 -48
-37 -43 c-20 -24 -41 -44 -47 -44 -6 0 -85 72 -175 159 l-165 159 44 46 45 46
23 -22 24 -22 89 89 90 89 -47 48 -47 48 -116 0 -116 0 -112 -113z"/>
<path d="M8417 8249 l-87 -70 17 -25 c14 -22 14 -27 2 -38 -10 -10 -393 -311
-406 -320 0 -1 -7 -54 -14 -118 l-12 -117 93 -118 c52 -65 96 -121 99 -125 3
-4 58 -13 121 -22 l114 -15 194 152 c256 202 230 186 252 157 l18 -24 49 38
c26 21 67 52 90 70 23 17 40 37 38 43 -2 7 -52 74 -111 148 -107 134 -107 135
-130 117 -157 -120 -154 -116 -148 -142 4 -23 -13 -39 -172 -164 -97 -75 -181
-135 -188 -133 -18 7 -69 85 -62 96 5 8 283 230 339 270 16 11 20 11 30 -3 11
-15 22 -9 99 51 48 37 87 73 88 78 1 11 -210 285 -219 285 -3 -1 -45 -32 -94
-71z"/>
<path d="M1294 7768 c-48 -73 -89 -140 -91 -149 -3 -11 24 -34 90 -76 l95 -61
19 25 18 26 80 -53 80 -53 -155 7 c-85 3 -196 9 -247 12 l-91 7 -76 -117 c-42
-64 -76 -121 -76 -125 0 -5 43 -36 95 -69 l94 -61 19 26 18 25 197 -127 c191
-123 196 -127 182 -148 -8 -12 -15 -24 -15 -28 0 -7 191 -132 195 -127 42 56
184 293 178 298 -4 4 -48 33 -97 65 l-90 57 -18 -25 -19 -26 -74 47 c-71 45
-95 69 -57 58 9 -2 96 -7 192 -10 96 -4 196 -9 222 -12 l47 -6 61 92 c33 51
60 96 60 100 0 4 -130 92 -290 195 -159 103 -290 189 -290 191 0 3 7 15 15 28
15 23 14 24 -77 82 -51 32 -95 60 -100 62 -4 2 -46 -57 -94 -130z"/>
<path d="M8876 7352 l-109 -57 -35 -109 -35 -109 51 -103 52 -104 -58 -29 -58
-29 -32 64 c-18 35 -32 66 -32 68 0 2 14 9 30 16 17 7 30 15 30 17 0 3 -22 46
-49 98 -27 51 -51 99 -53 106 -4 11 -20 7 -70 -18 l-66 -32 -36 -108 -36 -108
72 -143 73 -143 109 -34 109 -34 111 57 110 57 35 107 35 108 -48 99 c-27 54
-46 103 -42 110 8 13 80 51 95 51 6 0 25 -28 42 -62 29 -58 30 -63 14 -74 -10
-8 -23 -15 -29 -17 -14 -5 90 -217 106 -217 7 0 36 13 63 28 50 27 50 27 88
136 l37 109 -71 142 -72 142 -101 33 c-55 18 -105 34 -111 36 -5 1 -59 -23
-119 -54z"/>
<path d="M1484 6685 l-6 -25 -374 0 c-206 0 -374 -1 -374 -3 0 -2 -18 -54 -40
-115 l-39 -111 227 -172 c211 -161 352 -268 361 -275 2 -2 -1 -16 -7 -33 l-11
-30 110 -36 c61 -21 111 -35 113 -34 14 20 116 343 110 349 -18 16 -208 73
-211 63 -2 -6 -9 -18 -17 -28 -12 -16 -14 -16 -41 7 l-28 24 25 75 25 74 40 3
c40 3 41 3 40 -29 -2 -32 -2 -32 98 -65 54 -19 102 -34 105 -34 4 0 33 77 65
171 48 140 56 173 44 180 -15 9 -189 69 -201 69 -4 0 -10 -11 -14 -25z m-349
-282 c-10 -43 -17 -44 -64 -7 l-44 34 58 0 57 0 -7 -27z"/>
<path d="M9525 6605 c-5 -2 -54 -13 -107 -25 l-98 -22 3 -31 2 -31 -220 -52
c-121 -28 -223 -49 -227 -47 -5 2 -8 13 -8 23 0 10 -4 21 -9 24 -10 6 -208
-38 -218 -48 -10 -10 70 -356 81 -356 6 0 40 7 76 16 136 31 140 33 140 58 0
20 8 25 60 36 33 7 63 12 67 12 7 -1 12 -18 36 -113 7 -26 4 -27 -59 -43 -67
-17 -84 -15 -84 10 0 8 -6 14 -12 14 -17 -1 -208 -46 -212 -51 -4 -4 71 -350
78 -356 2 -2 53 8 115 23 l111 26 -3 31 -2 30 223 52 c122 28 225 49 227 46 3
-2 5 -13 5 -23 0 -29 21 -31 106 -10 44 11 91 22 105 26 l26 6 -39 172 c-22
95 -43 177 -47 181 -5 5 -44 -1 -87 -11 -43 -11 -91 -23 -106 -26 -21 -5 -28
-12 -28 -30 0 -20 -8 -25 -47 -35 -27 -7 -55 -14 -64 -17 -12 -3 -19 12 -32
68 -10 39 -14 74 -10 78 13 11 114 31 124 24 5 -3 9 -12 9 -20 0 -8 3 -14 8
-14 16 0 208 44 214 49 4 3 -2 42 -12 86 -10 44 -28 124 -40 178 -12 53 -25
97 -28 96 -4 0 -11 -2 -17 -4z"/>
<path d="M587 5765 c-48 -42 -87 -77 -88 -78 0 -1 -6 -71 -12 -156 l-13 -154
74 -88 c85 -103 38 -89 421 -119 l263 -20 85 72 c47 39 87 77 89 82 5 14 43
470 39 474 -5 5 -555 46 -559 41 -6 -6 -31 -308 -25 -313 2 -2 43 -6 92 -10
l87 -6 6 30 c6 28 9 30 53 30 84 0 91 -5 91 -64 0 -28 -4 -56 -8 -62 -5 -9
-67 -7 -232 7 -124 10 -226 18 -227 19 -7 1 -2 107 6 118 5 8 17 11 33 7 24
-6 26 -4 32 32 3 21 8 79 12 129 l6 91 -47 7 c-82 11 -87 8 -178 -69z"/>
<path d="M9580 5581 c-64 -6 -65 -7 -65 -35 -1 -16 -5 -31 -10 -32 -11 -3
-411 -34 -438 -34 -11 0 -17 8 -17 24 0 14 -4 27 -9 30 -9 6 -219 -9 -226 -16
-5 -5 24 -371 30 -376 2 -2 54 -1 114 3 l111 7 0 34 c0 32 2 34 33 34 17 0
113 7 212 15 243 20 225 21 225 -15 l0 -30 83 5 c45 3 97 8 116 11 l34 5 -7
112 c-3 62 -9 147 -13 190 l-6 77 -51 -2 c-28 -1 -80 -4 -116 -7z"/>
<path d="M921 4670 c-90 -19 -176 -93 -220 -191 -61 -134 11 -316 155 -389 41
-21 63 -25 134 -25 71 0 93 4 134 25 142 72 211 239 157 382 -27 70 -99 150
-161 177 -55 24 -140 33 -199 21z m165 -99 c86 -39 145 -148 129 -241 -9 -54
-63 -130 -111 -157 -78 -45 -188 -37 -258 18 -39 31 -76 101 -83 156 -10 87
48 185 132 224 52 24 138 24 191 0z"/>
<path d="M9181 4665 c-73 -21 -115 -48 -161 -106 -76 -97 -90 -220 -37 -324
37 -72 78 -112 152 -147 58 -27 74 -30 138 -26 117 6 200 58 262 164 23 39 29
64 33 125 4 67 1 84 -21 132 -68 148 -218 223 -366 182z m185 -100 c91 -46
145 -166 115 -258 -66 -200 -328 -221 -428 -34 -11 20 -17 54 -17 92 0 172
174 278 330 200z"/>
<path d="M1684 2939 c-29 -4 -75 -19 -104 -35 -139 -76 -202 -256 -135 -390
62 -124 156 -185 286 -185 125 -1 215 58 280 181 19 37 24 60 23 125 0 87 -17
132 -76 207 -53 68 -173 110 -274 97z m147 -106 c66 -34 106 -89 118 -159 10
-66 -7 -133 -46 -182 -41 -50 -82 -72 -145 -79 -106 -11 -190 36 -234 132 -31
66 -30 118 2 184 60 120 187 163 305 104z"/>
<path d="M8477 2939 c-101 -15 -196 -89 -240 -187 -29 -65 -29 -170 0 -234 33
-72 105 -144 169 -168 67 -25 162 -26 230 -3 60 20 140 97 174 167 32 67 33
173 2 238 -65 134 -196 207 -335 187z m153 -104 c73 -38 119 -117 120 -203 1
-216 -288 -304 -411 -126 -28 41 -34 60 -37 115 -6 107 47 188 147 226 45 17
137 11 181 -12z"/>
<path d="M7319 2014 l-106 -76 -6 -91 c-4 -51 -9 -174 -13 -273 l-7 -182 54
-76 c30 -41 59 -76 64 -76 6 0 70 43 143 95 73 52 137 95 142 95 5 0 17 -12
27 -26 17 -26 16 -27 -10 -48 -15 -12 -27 -25 -27 -30 0 -5 105 -160 125 -184
2 -2 73 47 159 108 97 70 153 116 149 123 -21 36 -116 168 -124 173 -6 3 -19
-2 -30 -12 -20 -18 -21 -18 -40 6 -27 35 -24 44 22 74 22 15 39 30 37 34 -9
22 -104 151 -111 152 -4 0 -25 -11 -45 -25 -20 -14 -40 -25 -44 -25 -3 0 -61
77 -128 170 -67 94 -122 170 -123 170 -1 0 -50 -34 -108 -76z m115 -353 c20
-27 36 -53 36 -57 -1 -12 -80 -68 -87 -61 -5 6 6 167 12 167 2 0 19 -22 39
-49z"/>
<path d="M2760 2035 c-47 -7 -90 -14 -96 -14 -16 -1 -97 -122 -88 -130 19 -17
187 -133 199 -137 6 -3 20 7 29 21 l17 26 44 -32 c25 -18 45 -35 45 -38 0 -3
-15 -27 -33 -53 l-33 -46 -31 19 -31 20 -44 -63 c-63 -90 -62 -85 -32 -111
l27 -23 -38 -55 c-21 -30 -42 -58 -46 -63 -4 -5 -27 6 -51 25 -24 18 -45 34
-47 36 -2 2 4 12 14 23 9 10 15 25 12 33 -5 12 -168 134 -193 144 -6 2 -29
-19 -49 -47 l-38 -52 13 -97 c7 -53 16 -106 19 -118 4 -13 57 -58 133 -113
l127 -90 112 20 c62 11 114 20 115 20 1 0 35 46 75 103 68 96 73 105 70 150
-2 46 -2 47 28 47 37 0 50 12 123 116 l57 80 -15 100 c-7 54 -14 104 -14 111
0 15 -263 203 -282 202 -7 -1 -51 -7 -98 -14z"/>
<path d="M6604 1614 l-141 -65 -43 -109 -43 -109 38 -79 37 -80 64 -18 c35
-11 64 -22 64 -25 0 -4 -11 -36 -24 -71 l-25 -65 50 -109 50 -109 107 -41 107
-41 55 25 c30 13 91 40 135 59 44 20 85 40 92 45 12 9 83 195 83 218 0 7 -21
59 -46 115 l-45 102 -69 27 -70 28 16 36 c39 89 39 93 2 173 l-35 75 -94 36
c-52 20 -101 38 -109 41 -8 3 -79 -24 -156 -59z m166 -224 c11 -21 20 -44 20
-50 0 -10 -80 -50 -100 -50 -8 0 -40 72 -40 91 0 8 72 46 92 48 4 1 17 -17 28
-39z m135 -297 c43 -94 42 -95 -11 -121 -26 -13 -50 -20 -54 -15 -5 4 -22 38
-38 76 l-31 67 47 25 c26 13 50 24 54 25 3 0 18 -26 33 -57z"/>
<path d="M3365 1497 l-230 -122 -42 -85 c-23 -47 -42 -89 -42 -93 -1 -4 20
-17 47 -29 82 -36 267 -120 270 -123 2 -2 -4 -17 -13 -35 -12 -23 -21 -30 -33
-25 -54 23 -55 22 -103 -88 l-46 -104 164 -74 c91 -41 170 -75 177 -77 14 -3
109 195 100 209 -3 5 -11 9 -19 9 -22 0 -28 19 -15 51 7 16 14 29 15 29 2 0
25 -9 51 -20 26 -11 49 -18 52 -16 2 3 22 42 43 88 l38 83 -47 24 c-26 13 -48
25 -50 26 -2 2 35 87 82 191 47 103 86 191 86 194 0 9 -224 110 -241 109 -8 0
-117 -55 -244 -122z m119 -206 c-23 -53 -30 -61 -48 -55 -44 14 -78 36 -69 45
13 13 137 78 141 74 2 -2 -9 -31 -24 -64z"/>
<path d="M5635 1344 c-22 -2 -68 -7 -103 -10 l-63 -6 -150 -225 -150 -225 7
-100 7 -101 66 6 c36 4 117 10 179 13 l112 7 0 -36 c0 -32 -3 -37 -24 -37 -51
0 -52 -2 -43 -123 5 -61 10 -113 11 -114 1 -2 85 4 187 12 101 8 188 15 192
15 8 0 5 62 -9 183 -5 44 -8 47 -34 47 -24 0 -28 4 -32 34 -4 38 7 46 70 46
l32 0 0 54 c0 29 -3 75 -7 101 l-6 47 -54 -4 c-29 -3 -53 -4 -54 -4 0 1 -8 95
-17 211 l-17 210 -30 1 c-16 1 -48 0 -70 -2z m-115 -386 l0 -58 -55 0 -55 0
47 70 c53 80 63 78 63 -12z"/>
<path d="M4500 1271 c-79 -67 -85 -75 -92 -119 -16 -114 -12 -132 39 -184 l47
-48 -44 -37 c-24 -21 -49 -42 -56 -48 -8 -6 -16 -56 -22 -130 l-9 -119 74 -87
c85 -99 71 -93 283 -105 l115 -6 79 69 c43 38 81 76 86 84 4 7 10 64 14 125
l7 111 -46 54 -46 54 28 25 c15 14 40 34 55 45 24 18 27 28 33 105 l6 85 -75
86 c-85 98 -72 93 -276 105 l-115 6 -85 -71z m280 -216 c0 -30 -3 -56 -7 -58
-5 -2 -32 -2 -60 1 l-53 4 0 36 c0 72 5 77 65 74 l55 -4 0 -53z m-25 -265 c4
-6 3 -44 0 -85 l-7 -75 -54 0 c-29 0 -56 4 -59 10 -3 5 -3 43 1 85 l7 75 53 0
c29 0 56 -5 59 -10z"/>
<path d="M3886 1054 c-10 -44 -22 -94 -26 -113 -5 -19 -8 -37 -5 -39 9 -9 331
-80 336 -74 7 8 49 190 49 213 0 13 -29 24 -133 48 -74 18 -149 34 -169 37
l-36 6 -16 -78z"/>
<path d="M6145 1093 c-82 -20 -152 -37 -153 -39 -4 -3 44 -224 50 -230 2 -2
79 13 171 34 126 28 167 41 166 52 0 8 -10 60 -23 115 -18 82 -26 100 -42 102
-10 1 -86 -14 -169 -34z"/>
</g>
</svg>
